# xmcd
#
# Track frame offsets: 
#        150
#        12545
#        25002
#        37950
#        50900
#        64392
#        75367
#        91172
#        110225
#        125465
#        139505
#        152145
#        162725
#        173335
#        184350
#        197055
#        210417
#        239127
#
# Disc length: 3392 seconds
#
# Revision: 6
# Processed by: cddbd v1.5.1PL0 Copyright (c) Steve Scherf et al.
# Submitted via: ExactAudioCopy v0.95a4
#
DISCID=fb0d3e12
DTITLE=Soul Music Collection - 3. - Atlantic Soul
DYEAR=1900
DGENRE=Blues
TTITLE0=Aretha Franklin - Chain Of Fools
TTITLE1=Solomon Burke - Everybody Needs Somebody To Love
TTITLE2=Ray Charles - Let The Good Times Roll
TTITLE3=Percy Sledge - When A Man Loves A Woman
TTITLE4=Arthur Conley - Ob-La-Di, Ob-La-Da
TTITLE5=Wilson Pickett - Land Of 1000 Dances
TTITLE6=Aretha Franklin - I Say A Little Prayer
TTITLE7=Ben E. King - Supernatural Thing (Part 1)
TTITLE8=Wilson Pickett - Goodbye Baby (Baby Goodbye)
TTITLE9=Wilson Pickett - Mustang Sally
TTITLE10=Percy Sledge - Cover Me
TTITLE11=Aretha Franklin - 96 Tears
TTITLE12=Arthur Conley - Sweet Soul Music
TTITLE13=Don Covay - Mercy, Mercy
TTITLE14=Percy Sledge - It Tears Me Up
TTITLE15=Wilson Pickett - 634-5789
TTITLE16=Donny Hathaway - Giving Up
TTITLE17=The Sweet Inspiration - Unchained Melody
EXTD=by David K. (Opatija City) - Croatia ID3G:   0
EXTT0=
EXTT1=
EXTT2=
EXTT3=
EXTT4=
EXTT5=
EXTT6=
EXTT7=
EXTT8=
EXTT9=
EXTT10=
EXTT11=
EXTT12=
EXTT13=
EXTT14=
EXTT15=
EXTT16=
EXTT17=
PLAYORDER=
